<svg width="1920" height="259" fill="none" xmlns="http://www.w3.org/2000/svg"><path d="M1948.2 108.514H-28.2v47.515h1976.4v-47.515z" fill="#DE413C"/><path d="M1948.2 38.308v73.943H-28.2V38.308c44.785 0 44.785 36.838 89.836 36.838 45.052 0 44.785-36.838 89.837-36.838 45.051 0 44.785 36.838 89.836 36.838 45.052 0 44.785-36.838 89.836-36.838 45.052 0 45.052 36.838 89.837 36.838 44.785 0 45.051-36.838 89.836-36.838s44.785 36.838 89.837 36.838c45.051 0 44.784-36.838 89.836-36.838 45.051 0 45.051 36.838 89.836 36.838s45.052-36.838 89.837-36.838c44.785 0 45.051 36.838 89.836 36.838 44.79 0 45.05-36.838 89.84-36.838 44.78 0 45.05 36.838 89.83 36.838 44.79 0 45.05-36.838 89.84-36.838 44.78 0 45.05 36.838 89.84 36.838 44.78 0 45.05-36.838 89.83-36.838 44.79 0 45.05 36.838 89.84 36.838 44.78 0 45.05-36.838 89.83-36.838 44.79 0 45.06 36.838 89.84 36.838 44.79 0 44.79-36.838 89.84-36.838 45.05 0 45.05 36.838 89.83 36.838 44.79 0 45.06-36.838 89.84-36.838z" fill="#DE413C"/><path d="m180.799 2.068-76.508 103.84h153.015L180.799 2.068z" fill="#DBDCD5" stroke="#fff" stroke-width="2" stroke-miterlimit="10"/><path d="M62.972 78.146h235.387l-26.658 61.663H98.693L62.972 78.146z" fill="#E9EAE6" stroke="#fff" stroke-width="2" stroke-miterlimit="10"/><path d="M1948.2 102.107v73.942H-28.2v-73.942c44.785 0 44.785 36.838 89.836 36.838 45.052 0 44.785-36.838 89.837-36.838 45.051 0 44.785 36.838 89.836 36.838 45.052 0 44.785-36.838 89.836-36.838 45.052 0 45.052 36.838 89.837 36.838 44.785 0 45.051-36.838 89.836-36.838s44.785 36.838 89.837 36.838c45.051 0 44.784-36.838 89.836-36.838 45.051 0 45.051 36.838 89.836 36.838s45.052-36.838 89.837-36.838c44.785 0 45.051 36.838 89.836 36.838 44.79 0 45.05-36.838 89.84-36.838 44.78 0 45.05 36.838 89.83 36.838 44.79 0 45.05-36.838 89.84-36.838 44.78 0 45.05 36.838 89.84 36.838 44.78 0 45.05-36.838 89.83-36.838 44.79 0 45.05 36.838 89.84 36.838 44.78 0 45.05-36.838 89.83-36.838 44.79 0 45.06 36.838 89.84 36.838 44.79 0 44.79-36.838 89.84-36.838 45.05 0 45.05 36.838 89.83 36.838 44.79 0 45.06-36.838 89.84-36.838z" fill="#E79025" stroke="#fff" stroke-width="2" stroke-miterlimit="10"/><path d="M1948.2 122.395v101.17H-28.2v-101.17c44.785 0 44.785 50.451 89.836 50.451 45.052 0 44.785-50.451 89.837-50.451 45.051 0 44.785 50.451 89.836 50.451 45.052 0 44.785-50.451 89.836-50.451 45.052 0 45.052 50.451 89.837 50.451 44.785 0 45.051-50.451 89.836-50.451s44.785 50.451 89.837 50.451c45.051 0 44.784-50.451 89.836-50.451 45.051 0 45.051 50.451 89.836 50.451s45.052-50.451 89.837-50.451c44.785 0 45.051 50.451 89.836 50.451 44.79 0 45.05-50.451 89.84-50.451 44.78 0 45.05 50.451 89.83 50.451 44.79 0 45.05-50.451 89.84-50.451 44.78 0 45.05 50.451 89.84 50.451 44.78 0 45.05-50.451 89.83-50.451 44.79 0 45.05 50.451 89.84 50.451 44.78 0 45.05-50.451 89.83-50.451 44.79 0 45.06 50.451 89.84 50.451 44.79 0 44.79-50.451 89.84-50.451 45.05 0 45.05 50.451 89.83 50.451 44.79 0 45.06-50.451 89.84-50.451z" fill="#E79025"/><path d="M1948.2 179.787v73.942H-28.2v-73.942c44.785 0 44.785 36.837 89.836 36.837 45.052 0 44.785-36.837 89.837-36.837 45.051 0 44.785 36.837 89.836 36.837 45.052 0 44.785-36.837 89.836-36.837 45.052 0 45.052 36.837 89.837 36.837 44.785 0 45.051-36.837 89.836-36.837s44.785 36.837 89.837 36.837c45.051 0 44.784-36.837 89.836-36.837 45.051 0 45.051 36.837 89.836 36.837s45.052-36.837 89.837-36.837c44.785 0 45.051 36.837 89.836 36.837 44.79 0 45.05-36.837 89.84-36.837 44.78 0 45.05 36.837 89.83 36.837 44.79 0 45.05-36.837 89.84-36.837 44.78 0 45.05 36.837 89.84 36.837 44.78 0 45.05-36.837 89.83-36.837 44.79 0 45.05 36.837 89.84 36.837 44.78 0 45.05-36.837 89.83-36.837 44.79 0 45.06 36.837 89.84 36.837 44.79 0 44.79-36.837 89.84-36.837 45.05 0 45.05 36.837 89.83 36.837 44.79 0 45.06-36.837 89.84-36.837z" fill="#EAC742" stroke="#fff" stroke-width="2.05" stroke-miterlimit="10"/><path d="M404.987 161.367c-17.861-15.749-37.587-21.088-47.984-13.881-3.998 2.67-5.864 6.674-6.664 8.543-5.865 12.012-3.199 30.164 7.997 36.57 6.931 4.005 15.195 2.403 19.194 1.335 7.197-1.602 13.595-5.606 21.326-10.677 2.132-1.335 3.999-2.67 5.331-3.738-.266 0-5.065-2.936-5.331-8.542 0-4.271 2.399-8.008 6.398-9.877l-.267.267z" fill="#fff"/><path d="m347.94 167.507-3.999-.801h-.533c.266 0 3.199 3.737 3.199 3.737l-3.199 3.204s-.8.533 4.532.8c5.331.267 0-6.94 0-6.94z" fill="#fff"/><path d="M360.469 176.316a5.868 5.868 0 0 0 5.864-5.873 5.868 5.868 0 0 0-5.864-5.872 5.869 5.869 0 0 0-5.865 5.872 5.869 5.869 0 0 0 5.865 5.873z" fill="#E79025"/><path d="M422.848 152.024c-8.797 1.869-15.195 9.343-15.728 18.152-.533 8.542 4.532 16.284 12.262 19.754.8-1.335 1.866-4.004 1.866-7.474 0-1.602 0-5.072-2.399-8.009-1.066-1.334-2.132-2.135-2.132-3.203s1.599-1.335 2.932-2.669c1.599-1.335 1.866-3.471 2.666-6.674.533-2.135.799-5.606.266-9.877h.267zM590.791 115.988c-19.193-19.487-41.852-26.427-54.915-18.419-5.864 3.737-8.797 9.877-10.13 13.08-6.664 14.949-4.531 36.571 8.531 44.312 6.664 4.004 13.862 3.204 17.861 2.937 9.863-1.068 17.86-6.407 31.456-15.483 2.665-1.869 4.798-3.47 6.131-4.271-.267 0-6.131-3.47-6.398-10.144 0-5.072 2.666-9.61 7.198-12.012h.266z" fill="#fff"/><path d="m524.947 119.992-6.931-1.869s-1.6-.267-1.067.267c.534.534 5.599 6.674 5.599 6.674l-5.865 5.606s-1.333.8 7.997 1.601c9.33.801.533-12.279.533-12.279h-.266z" fill="#fff"/><path d="M535.077 133.072c3.975 0 7.197-3.227 7.197-7.207 0-3.981-3.222-7.208-7.197-7.208s-7.198 3.227-7.198 7.208c0 3.98 3.223 7.207 7.198 7.207z" fill="#E79025"/><path d="M613.45 103.709c-10.929 1.868-19.46 10.944-20.526 21.889-1.067 10.41 4.798 20.821 14.661 25.092 1.067-1.868 2.666-5.072 2.666-9.343 0-2.135 0-6.406-2.399-10.143-1.333-1.869-2.666-2.67-2.399-4.005 0-1.334 2.133-1.601 3.732-3.203 2.133-1.868 2.666-4.004 3.465-8.275.534-2.669 1.333-7.207.8-12.546v.534zM711.551 159.232c-12.263-11.745-26.125-15.482-34.122-10.144-3.466 2.403-5.065 6.14-6.132 8.275-3.732 9.343-2.132 22.423 6.132 27.228 3.998 2.403 8.53 1.869 11.196 1.335 6.131-.801 10.93-4.271 19.193-10.144 1.6-1.067 2.933-2.135 3.733-2.936 0 0-3.733-2.135-4.266-6.14 0-2.936 1.333-5.872 4.266-7.474z" fill="#fff"/><path d="m671.031 162.435-3.999-.801h-.533c.267 0 3.199 3.471 3.199 3.471l-3.199 3.47s-.533.534 4.532.534 0-6.941 0-6.941v.267z" fill="#fff"/><path d="M679.561 168.842a3.735 3.735 0 0 0 3.732-3.737 3.735 3.735 0 0 0-3.732-3.737 3.735 3.735 0 0 0-3.732 3.737 3.735 3.735 0 0 0 3.732 3.737z" fill="#E79025"/><path d="M723.546 152.292c-6.131 1.601-10.396 6.94-10.663 13.347 0 5.872 3.466 11.478 9.331 13.613.533-1.067 1.332-2.936 1.066-5.338 0-1.068 0-3.737-1.866-5.606-.8-1.068-1.6-1.335-1.6-2.136 0-.8 1.067-1.067 2.133-1.868 1.066-1.068 1.333-2.403 1.599-4.805 0-1.602.534-4.004 0-6.941v-.266z" fill="#fff"/><path d="M1946.33 237.179H-27.667v21.088H1946.33v-21.088z" fill="#EAC742"/></svg>